<svg width="66" height="65" viewBox="0 0 66 65" fill="none" xmlns="http://www.w3.org/2000/svg">
<path d="M50.7508 32.655C50.7508 31.2106 50.6312 30.1566 50.3724 29.0636H33.543V35.5826H43.4215C43.2224 37.2027 42.1469 39.6425 39.7569 41.2819L39.7234 41.5002L45.0445 45.54L45.4132 45.576C48.7989 42.5116 50.7508 38.0029 50.7508 32.655Z" fill="#4285F4"/>
<path d="M33.5412 49.8312C38.3808 49.8312 42.4437 48.2697 45.4114 45.5762L39.7551 41.2821C38.2415 42.3165 36.2099 43.0387 33.5412 43.0387C28.8011 43.0387 24.778 39.9744 23.3439 35.7389L23.1337 35.7564L17.6007 39.9529L17.5283 40.15C20.4759 45.8884 26.5305 49.8312 33.5412 49.8312Z" fill="#34A853"/>
<path d="M23.3447 35.739C22.9663 34.646 22.7473 33.4748 22.7473 32.2648C22.7473 31.0546 22.9663 29.8835 23.3248 28.7905L23.3148 28.5577L17.7124 24.2939L17.5291 24.3794C16.3143 26.7606 15.6172 29.4346 15.6172 32.2648C15.6172 35.0949 16.3143 37.7688 17.5291 40.1501L23.3447 35.739Z" fill="#FBBC05"/>
<path d="M33.5413 21.4907C36.9071 21.4907 39.1776 22.9156 40.4722 24.1062L45.531 19.2657C42.4241 16.4356 38.3809 14.6985 33.5413 14.6985C26.5306 14.6985 20.4759 18.6411 17.5283 24.3794L23.324 28.7906C24.7781 24.5551 28.8012 21.4907 33.5413 21.4907Z" fill="#EB4335"/>
</svg>
